<?xml version="1.0" encoding="UTF-8"?>
<svg width="222px" height="46px" viewBox="0 0 222 46" version="1.1" xmlns="http://www.w3.org/2000/svg" xmlns:xlink="http://www.w3.org/1999/xlink">
    <!-- Generator: Sketch 54 (76480) - https://sketchapp.com -->
    <title>Group 10</title>
    <desc>Created with Sketch.</desc>
    <g id="Welcome" stroke="none" stroke-width="1" fill="none" fill-rule="evenodd">
        <g id="Desktop-HD" transform="translate(-752.000000, -256.000000)" fill="#231F20">
            <g id="Group-10" transform="translate(752.000000, 255.000000)">
                <g transform="translate(71.000000, 7.000000)">
                    <polygon id="Fill-69" points="7.6226 20.0391 7.6226 32.9721 0.6456 32.9721 0.6456 0.1191 23.2816 0.1191 23.2816 6.5401 7.6226 6.5401 7.6226 13.6631 22.1996 13.6631 22.1996 20.0391"></polygon>
                    <path d="M31.2007,25.8018 C31.2007,26.3948 31.4647,26.8868 31.9977,27.2788 C32.5327,27.6708 33.2187,27.8648 34.0577,27.8648 C35.5627,27.8648 36.9357,27.3968 38.1837,26.4568 L38.1837,23.8328 C36.9977,23.5518 35.9647,23.4128 35.0917,23.4128 C33.8707,23.4128 32.9207,23.6248 32.2337,24.0438 C31.5477,24.4668 31.2007,25.0528 31.2007,25.8018 M32.4697,33.4888 C30.0637,33.4888 28.1357,32.8168 26.6797,31.4708 C25.2297,30.1298 24.5017,28.3778 24.5017,26.2248 C24.5017,23.8498 25.3757,22.0228 27.1227,20.7398 C28.8707,19.4598 31.0277,18.8188 33.5937,18.8188 C35.0917,18.8188 36.6237,19.0368 38.1837,19.4738 L38.1837,19.0998 C38.1837,17.9758 37.8377,17.0708 37.1507,16.3808 C36.4647,15.6948 35.5287,15.3508 34.3427,15.3508 C32.2207,15.3508 30.5767,16.2418 29.4187,18.0208 L25.2017,13.9918 C27.7337,10.9618 30.9377,9.4468 34.8137,9.4468 C37.6847,9.4468 40.0917,10.2748 42.0257,11.9288 C43.9327,13.5548 44.8897,15.7878 44.8897,18.6318 L44.8897,32.9718 L38.2817,32.9718 L38.2817,31.4708 C36.7487,32.8168 34.8137,33.4888 32.4697,33.4888" id="Fill-70"></path>
                    <path d="M70.4204,21.4917 L70.4204,32.9717 L63.7704,32.9717 L63.7704,0.1187 L70.4204,0.1187 L70.4204,11.3227 C71.7654,10.0707 73.5474,9.4467 75.7674,9.4467 C78.6384,9.4467 80.9194,10.3447 82.6054,12.1397 C84.2964,13.9367 85.1354,16.4297 85.1354,19.6167 L85.1354,32.9717 L78.4374,32.9717 L78.4374,20.1327 C78.4374,18.7567 78.1184,17.6637 77.4734,16.8487 C76.8354,16.0377 75.8924,15.6317 74.6434,15.6317 C71.8284,15.6317 70.4204,17.5837 70.4204,21.4917" id="Fill-71"></path>
                    <path d="M100.1357,15.6807 C98.5757,15.6807 97.2927,16.2247 96.2937,17.3207 C95.2887,18.4127 94.7887,19.8037 94.7887,21.4917 C94.7887,23.1777 95.2887,24.5677 96.2937,25.6597 C97.2927,26.7557 98.5757,27.3037 100.1357,27.3037 C101.6967,27.3037 102.9787,26.7557 103.9777,25.6597 C104.9757,24.5677 105.4757,23.1777 105.4757,21.4917 C105.4757,19.8037 104.9757,18.4127 103.9777,17.3207 C102.9787,16.2247 101.6967,15.6807 100.1357,15.6807 M91.4677,30.0667 C89.1517,27.7537 87.9997,24.8967 87.9997,21.4917 C87.9997,18.0867 89.1517,15.2267 91.4677,12.9137 C93.8387,10.6007 96.7307,9.4467 100.1357,9.4467 C103.5687,9.4467 106.4467,10.6007 108.7557,12.9137 C111.0997,15.2267 112.2717,18.0867 112.2717,21.4917 C112.2717,24.8967 111.1137,27.7537 108.8037,30.0667 C106.5227,32.3477 103.6307,33.4897 100.1357,33.4897 C96.6337,33.4897 93.7417,32.3477 91.4677,30.0667" id="Fill-72"></path>
                    <path d="M122.3477,21.2075 L122.3477,32.9725 L115.6977,32.9725 L115.6977,10.0075 L122.2577,10.0075 L122.2577,11.6035 C123.7277,10.1645 125.5657,9.4465 127.7847,9.4465 C130.4407,9.4465 132.5697,10.3685 134.1577,12.2095 C136.0027,10.3685 138.2977,9.4465 141.0507,9.4465 C144.1097,9.4465 146.4807,10.3305 148.1527,12.0955 C149.8237,13.8605 150.6557,16.3675 150.6557,19.6165 L150.6557,32.9725 L144.0047,32.9725 L144.0047,19.8965 C144.0047,18.5865 143.7007,17.5455 143.0897,16.7795 C142.4797,16.0175 141.6127,15.6315 140.4897,15.6315 C139.2417,15.6315 138.2627,16.0865 137.5557,16.9915 C136.8557,17.8955 136.5017,19.1475 136.5017,20.7395 L136.5017,32.9725 L129.8507,32.9725 L129.8507,19.8965 C129.8507,18.5865 129.5467,17.5455 128.9357,16.7795 C128.3257,16.0175 127.4587,15.6315 126.3357,15.6315 C123.6797,15.6315 122.3477,17.4905 122.3477,21.2075" id="Fill-73"></path>
                    <path d="M56.9473,33.0503 C51.6073,33.0503 48.9303,30.3183 48.9303,24.8493 L48.9303,16.1333 L48.9303,9.9923 L48.9303,3.5703 L55.5393,3.5703 L55.5393,9.9923 L60.6503,9.9923 L60.6503,16.1333 L55.5393,16.1333 L55.5393,24.0523 C55.5393,25.1133 55.7823,25.8483 56.2673,26.2543 C56.7533,26.6593 57.5233,26.8643 58.5913,26.8643 L60.5533,26.8643 L60.5533,32.9563 C58.9933,33.0193 57.7933,33.0503 56.9473,33.0503" id="Fill-74"></path>
                </g>
                <g id="Group-9">
                    <path d="M23.7617,23.8042 C23.7617,17.4822 18.6367,12.3562 12.3147,12.3562 C5.9917,12.3562 0.8667,17.4822 0.8667,23.8042 C0.8667,30.1262 5.9917,35.2512 12.3147,35.2512 C18.6367,35.2512 23.7617,30.1262 23.7617,23.8042" id="Fill-75"></path>
                    <path d="M23.7617,41.2993 C33.4247,41.2993 41.2577,33.4663 41.2577,23.8043 C41.2577,14.1413 33.4247,6.3083 23.7617,6.3083" id="Fill-76"></path>
                    <path d="M41.2573,0.9595 L41.2573,46.6485 C48.4613,41.6005 53.1973,33.2685 53.1973,23.8045 C53.1973,14.3395 48.4613,6.0075 41.2573,0.9595" id="Fill-77"></path>
                </g>
            </g>
        </g>
    </g>
</svg>